:FULLY-SPECIFIED
:FORCE-ALL-JOINTS-BE-3DOF
:DEGREES
102
root 7.26376 16.7047 -26.8088 4.62992 11.3841 -4.35994
lfemur -28.7928 -1.94238 -11.1557
ltibia 39.7828 0 0
lfoot -17.8327 -4.67724 0
ltoes 22.7181 0 0
rfemur -30.9502 -2.47282 1.30461
rtibia 82.3675 0 0
rfoot 25.6493 15.0405 0
rtoes 20.1021 0 0
lowerback 0.507371 2.03388 0.946656
upperback -1.29827 2.80982 2.0058
thorax -1.69372 1.41654 1.42132
lowerneck -10.3771 -5.09667 2.57056
upperneck -1.57775 -7.06223 0.835651
head 1.18691 -3.50942 -0.467282
lclavicle -9.00168e-15 -9.16821e-16 0
lhumerus -46.8215 -9.46816 93.7183
lradius 48.2665 0 0
lwrist 14.4042 0 0
lhand 5.23835 8.1992 0
lfingers 7.12502 0 0
lthumb 30.5794 35.5031 0
rclavicle -9.00168e-15 -9.16821e-16 0
rhumerus -41.9877 2.97122 -74.5789
rradius 47.3963 0 0
rwrist 6.09174 0 0
rhand -26.055 -16.4078 0
rfingers 7.12502 0 0
rthumb 0.515667 -46.7651 0
103
root 7.32278 16.7102 -26.7742 4.00525 11.6501 -4.07167
lfemur -27.7046 -2.18813 -11.5208
ltibia 39.3021 0 0
lfoot -17.7531 -5.49009 0
ltoes 23.2451 0 0
rfemur -33.1296 -2.80265 0.884101
rtibia 84.5613 0 0
rfoot 27.9623 16.7962 0
rtoes 20.3595 0 0
lowerback 1.02722 1.83361 0.680813
upperback -1.10701 2.53412 2.02885
thorax -1.79214 1.28003 1.59488
lowerneck -10.4194 -5.06389 2.47768
upperneck -1.32733 -7.01461 0.828835
head 1.27723 -3.48183 -0.456691
lclavicle -9.33741e-15 -1.44365e-15 0
lhumerus -46.8377 -9.74539 93.8298
lradius 48.4835 0 0
lwrist 14.606 0 0
lhand 6.01714 8.43375 0
lfingers 7.12502 0 0
lthumb 31.3252 35.6304 0
rclavicle -9.33741e-15 -1.44365e-15 0
rhumerus -42.2164 2.65211 -73.4116
rradius 47.9671 0 0
rwrist 5.68715 0 0
rhand -25.4499 -16.2544 0
rfingers 7.12502 0 0
rthumb 1.09632 -46.545 0
104
root 7.38651 16.7164 -26.7362 3.29615 11.8896 -3.75549
lfemur -26.4882 -2.36021 -11.9098
ltibia 38.7504 0 0
lfoot -17.6452 -6.27699 0
ltoes 23.7813 0 0
rfemur -35.5537 -3.28216 0.697349
rtibia 86.4532 0 0
rfoot 30.0336 18.5562 0
rtoes 20.2467 0 0
lowerback 1.63585 1.61713 0.38345
upperback -0.878601 2.23211 2.04425
thorax -1.8983 1.13012 1.78263
lowerneck -10.4749 -5.01032 2.3791
upperneck -1.06305 -6.93927 0.824454
head 1.37484 -3.44021 -0.443192
lclavicle -9.69612e-15 -1.77897e-15 0
lhumerus -46.8212 -10.0442 93.9188
lradius 48.715 0 0
lwrist 14.8001 0 0
lhand 6.79163 8.64782 0
lfingers 7.12502 0 0
lthumb 32.067 35.7388 0
rclavicle -9.69612e-15 -1.77897e-15 0
rhumerus -42.4247 2.26097 -72.1312
rradius 48.6647 0 0
rwrist 5.18793 0 0
rhand -24.6097 -16.1102 0
rfingers 7.12502 0 0
rthumb 1.90279 -46.3099 0
105
root 7.45558 16.7234 -26.6942 2.4946 12.1012 -3.41003
lfemur -25.1338 -2.4541 -12.3214
ltibia 38.119 0 0
lfoot -17.505 -7.02869 0
ltoes 24.3217 0 0
rfemur -38.2424 -3.92675 0.766224
rtibia 88.0141 0 0
rfoot 31.8407 20.3221 0
rtoes 19.7298 0 0
lowerback 2.34167 1.38359 0.0517701
upperback -0.609886 1.90225 2.05176
thorax -2.01332 0.966013 1.98629
lowerneck -10.5448 -4.93466 2.27483
upperneck -0.783534 -6.83454 0.822417
head 1.48045 -3.38371 -0.426726
lclavicle -1.0088e-14 -1.90128e-15 0
lhumerus -46.7701 -10.3646 93.9823
lradius 48.9629 0 0
lwrist 14.9864 0 0
lhand 7.56231 8.8397 0
lfingers 7.12502 0 0
lthumb 32.8052 35.8267 0
rclavicle -1.0088e-14 -1.90128e-15 0
rhumerus -42.6101 1.79206 -70.7259
rradius 49.5016 0 0
rwrist 4.58535 0 0
rhand -23.5118 -15.9752 0
rfingers 7.12502 0 0
rthumb 2.95674 -46.0577 0
106
root 7.53062 16.7313 -26.6477 1.59258 12.283 -3.03397
lfemur -23.6313 -2.46527 -12.7543
ltibia 37.3992 0 0
lfoot -17.3285 -7.73592 0
ltoes 24.8613 0 0
rfemur -41.2156 -4.75181 1.11259
rtibia 89.2151 0 0
rfoot 33.361 22.0951 0
rtoes 18.775 0 0
lowerback 3.15315 1.13213 -0.317021
upperback -0.297715 1.54298 2.05108
thorax -2.13833 0.786902 2.20754
lowerneck -10.6307 -4.8356 2.16485
upperneck -0.487372 -6.69874 0.822634
head 1.59477 -3.31149 -0.407235
lclavicle -1.05232e-14 -1.78906e-15 0
lhumerus -46.6826 -10.7064 94.0168
lradius 49.2289 0 0
lwrist 15.1652 0 0
lhand 8.32967 9.00768 0
lfingers 7.12502 0 0
lthumb 33.5404 35.8923 0
rclavicle -1.05232e-14 -1.78906e-15 0
rhumerus -42.7698 1.23965 -69.1841
rradius 50.4904 0 0
rwrist 3.87067 0 0
rhand -22.1336 -15.8497 0
rfingers 7.12502 0 0
rthumb 4.27979 -45.7864 0
107
root 7.60536 16.7404 -26.6028 0.664472 12.3889 -2.65748
lfemur -22.0892 -2.4046 -13.1879
ltibia 36.6488 0 0
lfoot -17.1307 -8.38605 0
ltoes 25.437 0 0
rfemur -44.1882 -5.6582 1.69685
rtibia 89.8006 0 0
rfoot 34.4082 23.7052 0
rtoes 17.4563 0 0
lowerback 3.99674 0.891208 -0.682366
upperback 0.0328018 1.19523 2.04483
thorax -2.26014 0.613107 2.42353
lowerneck -10.7251 -4.71657 2.06186
upperneck -0.199605 -6.53696 0.818968
head 1.70794 -3.22665 -0.388684
lclavicle -1.11349e-14 -1.43024e-15 0
lhumerus -46.5739 -11.0113 94.0212
lradius 49.4958 0 0
lwrist 15.3256 0 0
lhand 8.98196 9.12217 0
lfingers 7.12502 0 0
lthumb 34.1661 35.9266 0
rclavicle -1.11349e-14 -1.43024e-15 0
rhumerus -42.8636 0.672572 -67.622
rradius 51.4821 0 0
rwrist 3.10415 0 0
rhand -20.5023 -15.6788 0
rfingers 7.12502 0 0
rthumb 5.84607 -44.6706 0
108
root 7.67327 16.751 -26.5655 -0.211517 12.3825 -2.31005
lfemur -20.6213 -2.28652 -13.6032
ltibia 35.932 0 0
lfoot -16.9303 -8.97357 0
ltoes 26.0794 0 0
rfemur -46.8783 -6.53934 2.45641
rtibia 89.5914 0 0
rfoot 34.8473 24.9979 0
rtoes 15.885 0 0
lowerback 4.79522 0.687093 -1.00477
upperback 0.354604 0.897165 2.03545
thorax -2.3656 0.463629 2.61174
lowerneck -10.8194 -4.58291 1.97708
upperneck 0.0551627 -6.35674 0.806606
head 1.81009 -3.13348 -0.374516
lclavicle -1.2013e-14 -8.43199e-16 0
lhumerus -46.459 -11.2293 93.9983
lradius 49.7449 0 0
lwrist 15.4569 0 0
lhand 9.42189 9.1601 0
lfingers 7.12502 0 0
lthumb 34.5896 35.9239 0
rclavicle -1.2013e-14 -8.43199e-16 0
rhumerus -42.8613 0.158462 -66.1623
rradius 52.3323 0 0
rwrist 2.35184 0 0
rhand -18.6811 -15.4198 0
rfingers 7.12502 0 0
rthumb 7.59494 -42.0554 0
109
root 7.73461 16.7626 -26.5354 -1.03764 12.2764 -1.98931
lfemur -19.2255 -2.11186 -14.0011
ltibia 35.2495 0 0
lfoot -16.7288 -9.49993 0
ltoes 26.7736 0 0
rfemur -49.3109 -7.39951 3.3786
rtibia 88.6728 0 0
rfoot 34.7328 25.9976 0
rtoes 14.0827 0 0
lowerback 5.55152 0.515658 -1.28861
upperback 0.667919 0.643104 2.02244
thorax -2.45591 0.335687 2.77437
lowerneck -10.9136 -4.43625 1.90832
upperneck 0.278971 -6.16007 0.787443
head 1.9019 -3.03285 -0.36389
lclavicle -1.31028e-14 -5.21616e-17 0
lhumerus -46.3365 -11.3731 93.9506
lradius 49.976 0 0
lwrist 15.5599 0 0
lhand 9.67165 9.12948 0
lfingers 7.12502 0 0
lthumb 34.8321 35.8874 0
rclavicle -1.31028e-14 -5.21616e-17 0
rhumerus -42.7749 -0.310225 -64.8024
rradius 53.0601 0 0
rwrist 1.6137 0 0
rhand -16.7019 -15.0908 0
rfingers 7.12502 0 0
rthumb 9.49592 -38.194 0
110
root 7.78965 16.7751 -26.5115 -1.81616 12.0835 -1.69287
lfemur -17.8999 -1.88141 -14.3826
ltibia 34.6018 0 0
lfoot -16.5277 -9.9666 0
ltoes 27.5049 0 0
rfemur -51.5109 -8.243 4.4508
rtibia 87.1303 0 0
rfoot 34.1191 26.729 0
rtoes 12.0713 0 0
lowerback 6.26856 0.372777 -1.53827
upperback 0.972972 0.427357 2.00531
thorax -2.53227 0.226498 2.91363
lowerneck -11.0074 -4.27817 1.85339
upperneck 0.473859 -5.94892 0.763374
head 1.98407 -2.92567 -0.355961
lclavicle -1.43497e-14 9.18664e-16 0
lhumerus -46.2048 -11.4552 93.8809
lradius 50.1889 0 0
lwrist 15.6352 0 0
lhand 9.75343 9.03833 0
lfingers 7.12502 0 0
lthumb 34.9144 35.8203 0
rclavicle -1.43497e-14 9.18664e-16 0
rhumerus -42.6167 -0.741035 -63.54
rradius 53.6851 0 0
rwrist 0.889694 0 0
rhand -14.5961 -14.7097 0
rfingers 7.12502 0 0
rthumb 11.5185 -33.3398 0
111
root 7.83864 16.7883 -26.4934 -2.54933 11.8166 -1.41835
lfemur -16.6426 -1.596 -14.7485
ltibia 33.9896 0 0
lfoot -16.3284 -10.375 0
ltoes 28.2585 0 0
rfemur -53.5034 -9.07407 5.66034
rtibia 85.0492 0 0
rfoot 33.0604 27.2166 0
rtoes 9.8726 0 0
lowerback 6.94925 0.254321 -1.75814
upperback 1.26999 0.244239 1.98356
thorax -2.59587 0.133281 3.03172
lowerneck -11.1004 -4.11028 1.81011
upperneck 0.641867 -5.72528 0.736294
head 2.05729 -2.81283 -0.349887
lclavicle -1.5699e-14 2.04506e-15 0
lhumerus -46.0623 -11.4881 93.7919
lradius 50.3835 0 0
lwrist 15.6835 0 0
lhand 9.68941 8.89469 0
lfingers 7.12502 0 0
lthumb 34.8577 35.7259 0
rclavicle -1.5699e-14 2.04506e-15 0
rhumerus -42.3988 -1.14151 -62.3726
rradius 54.2264 0 0
rwrist 0.179778 0 0
rhand -12.3956 -14.2948 0
rfingers 7.12502 0 0
rthumb 13.6323 -27.7459 0
112
root 7.88185 16.8018 -26.4803 -3.23941 11.4886 -1.16336
lfemur -15.4515 -1.25642 -15.0999
ltibia 33.4135 0 0
lfoot -16.1325 -10.7267 0
ltoes 29.0197 0 0
rfemur -55.3132 -9.897 6.99458
rtibia 82.515 0 0
rfoot 31.6114 27.485 0
rtoes 7.50835 0 0
lowerback 7.59653 0.156164 -1.9526
upperback 1.5592 0.0880627 1.95669
thorax -2.6479 0.0532516 3.13085
lowerneck -11.1926 -3.93419 1.77627
upperneck 0.785034 -5.49113 0.708099
head 2.12224 -2.69522 -0.344826
lclavicle -1.7096e-14 3.30283e-15 0
lhumerus -45.9074 -11.4844 93.6862
lradius 50.5594 0 0
lwrist 15.7054 0 0
lhand 9.5018 8.70657 0
lfingers 7.12502 0 0
lthumb 34.6831 35.6075 0
rclavicle -1.7096e-14 3.30283e-15 0
rhumerus -42.1332 -1.5192 -61.2977
rradius 54.7036 0 0
rwrist -0.516084 0 0
rhand -10.132 -13.8639 0
rfingers 7.12502 0 0
rthumb 15.8068 -21.6657 0
113
root 7.91954 16.8154 -26.4715 -3.88865 11.1121 -0.925538
lfemur -14.3247 -0.863494 -15.4376
ltibia 32.8741 0 0
lfoot -15.9415 -11.0229 0
ltoes 29.7737 0 0
rfemur -56.9654 -10.7161 8.44087
rtibia 79.6131 0 0
rfoot 29.8262 27.5586 0
rtoes 5.00034 0 0
lowerback 8.21332 0.0741781 -2.12604
upperback 1.84083 -0.0468589 1.92421
thorax -2.68955 -0.0163706 3.21323
lowerneck -11.2837 -3.7515 1.7497
upperneck 0.905401 -5.24845 0.680684
head 2.17962 -2.57374 -0.339935
lclavicle -1.84861e-14 4.66775e-15 0
lhumerus -45.7386 -11.4566 93.5666
lradius 50.7166 0 0
lwrist 15.7017 0 0
lhand 9.21277 8.48199 0
lfingers 7.12502 0 0
lthumb 34.4115 35.4683 0
rclavicle -1.84861e-14 4.66775e-15 0
rhumerus -41.8322 -1.88164 -60.3129
rradius 55.1359 0 0
rwrist -1.19793 0 0
rhand -7.83701 -13.4352 0
rfingers 7.12502 0 0
rthumb 18.0114 -15.3525 0
